<?xml version="1.0" encoding="UTF-8"?>
<!DOCTYPE svg PUBLIC "-//W3C//DTD SVG 1.1//EN" "http://www.w3.org/Graphics/SVG/1.1/DTD/svg11.dtd">
<svg xmlns="http://www.w3.org/2000/svg" version="1.1" width="987px" height="305px" style="shape-rendering:geometricPrecision; text-rendering:geometricPrecision; image-rendering:optimizeQuality; fill-rule:evenodd; clip-rule:evenodd" xmlns:xlink="http://www.w3.org/1999/xlink">
<g><path style="opacity:0.984" fill="#2d8adb" d="M 241.5,-0.5 C 246.167,-0.5 250.833,-0.5 255.5,-0.5C 277.982,3.13268 294.482,15.1327 305,35.5C 333.616,107.657 339.616,181.657 323,257.5C 314.365,284.979 295.865,300.646 267.5,304.5C 261.833,304.5 256.167,304.5 250.5,304.5C 212.593,303.013 175.593,296.013 139.5,283.5C 139.17,279.567 139.003,275.567 139,271.5C 137.646,268.495 136.646,265.495 136,262.5C 147.024,248.977 157.857,235.311 168.5,221.5C 178.646,223.172 187.146,220.172 194,212.5C 200.807,198.248 196.974,188.082 182.5,182C 178.118,181.543 173.784,181.543 169.5,182C 160.138,170.772 151.138,159.272 142.5,147.5C 147.833,139.833 147.833,132.167 142.5,124.5C 151.138,112.728 160.138,101.228 169.5,90C 174.324,90.7271 179.157,90.5604 184,89.5C 194.373,100.381 203.873,112.048 212.5,124.5C 205.759,137.958 209.093,148.125 222.5,155C 234.33,157.668 242.83,153.502 248,142.5C 248.373,140.302 248.873,138.135 249.5,136C 248.291,131.724 247.124,127.558 246,123.5C 254.651,111.524 263.985,100.19 274,89.5C 289.281,92.1127 298.114,85.7794 300.5,70.5C 298.449,57.2768 290.782,50.7768 277.5,51C 269.107,53.0587 263.607,58.2253 261,66.5C 260.423,72.7178 261.09,78.7178 263,84.5C 253.976,95.5198 244.976,106.52 236,117.5C 233.6,116.956 231.267,116.289 229,115.5C 226.733,116.289 224.4,116.956 222,117.5C 213.024,106.52 204.024,95.5198 195,84.5C 195.796,80.0771 196.629,75.5771 197.5,71C 195.069,55.2262 186.069,48.8929 170.5,52C 157.561,59.1429 154.561,69.1429 161.5,82C 152.357,93.977 143.024,105.81 133.5,117.5C 128.727,115.297 124.06,115.297 119.5,117.5C 109.795,106.626 100.628,95.2922 92,83.5C 93.1053,79.3127 93.9386,74.9793 94.5,70.5C 94.6505,66.1168 93.3171,62.2835 90.5,59C 136.454,28.0705 186.787,8.23716 241.5,-0.5 Z"/></g>
<g><path style="opacity:0.91" fill="#323332" d="M 739.5,135.5 C 736.3,137.07 732.967,137.904 729.5,138C 728.584,137.626 727.75,137.126 727,136.5C 726.333,134.167 726.333,131.833 727,129.5C 732.713,126.726 738.213,123.56 743.5,120C 746.923,116.762 749.257,112.929 750.5,108.5C 743.492,108.666 736.492,108.5 729.5,108C 724.259,104.47 724.259,100.803 729.5,97C 727.718,94.7569 727.218,92.2569 728,89.5C 734.842,84.1529 738.842,77.1529 740,68.5C 742.332,65.2091 745.165,64.7091 748.5,67C 749.833,70.3333 749.833,73.6667 748.5,77C 760.167,77.3333 771.833,77.6667 783.5,78C 787.019,80.6846 787.352,83.6846 784.5,87C 777.842,87.4996 771.175,87.6663 764.5,87.5C 764.5,90.8333 764.5,94.1667 764.5,97.5C 772.507,97.3336 780.507,97.5003 788.5,98C 790.478,100.497 790.978,103.331 790,106.5C 789.25,107.126 788.416,107.626 787.5,108C 779.833,108.333 772.167,108.667 764.5,109C 772.085,113.709 779.585,118.542 787,123.5C 788.5,130 786,132.5 779.5,131C 772.583,126.959 765.75,122.792 759,118.5C 753.836,125.839 747.336,131.506 739.5,135.5 Z M 744.5,87.5 C 747.85,87.335 751.183,87.5017 754.5,88C 753.549,91.0567 753.216,94.2234 753.5,97.5C 747.491,97.6662 741.491,97.4995 735.5,97C 739.38,94.6211 742.38,91.4544 744.5,87.5 Z"/></g>
<g><path style="opacity:0.929" fill="#323332" d="M 986.5,101.5 C 986.5,103.167 986.5,104.833 986.5,106.5C 985.373,107.122 984.373,107.955 983.5,109C 976.174,109.5 968.841,109.666 961.5,109.5C 961.607,111.903 960.607,113.736 958.5,115C 964.5,115.333 970.5,115.667 976.5,116C 978.333,116.5 979.5,117.667 980,119.5C 980.667,129.167 980.667,138.833 980,148.5C 979.5,150.333 978.333,151.5 976.5,152C 942.833,152.667 909.167,152.667 875.5,152C 872.833,149 872.833,146 875.5,143C 906.832,142.5 938.165,142.333 969.5,142.5C 969.5,141.5 969.5,140.5 969.5,139.5C 940.831,139.667 912.165,139.5 883.5,139C 879.5,135.667 879.5,132.333 883.5,129C 912.165,128.5 940.831,128.333 969.5,128.5C 969.5,127.5 969.5,126.5 969.5,125.5C 938.165,125.667 906.832,125.5 875.5,125C 872.833,122 872.833,119 875.5,116C 882.833,115.667 890.167,115.333 897.5,115C 895.393,113.736 894.393,111.903 894.5,109.5C 887.159,109.666 879.826,109.5 872.5,109C 868.515,105.714 868.515,102.381 872.5,99C 879.856,98.8313 887.189,98.3313 894.5,97.5C 889.533,96.671 884.533,96.171 879.5,96C 876.136,93.2709 875.803,90.2709 878.5,87C 883.755,85.9307 889.089,85.0974 894.5,84.5C 887.858,83.6691 881.191,83.1691 874.5,83C 871.222,80.712 870.722,77.8787 873,74.5C 880.079,73.5201 887.245,73.1868 894.5,73.5C 894.654,66.5121 897.82,64.5121 904,67.5C 905.128,69.3453 905.628,71.3453 905.5,73.5C 911.176,73.3339 916.843,73.5006 922.5,74C 925.059,76.9253 925.059,79.9253 922.5,83C 916.804,83.1701 911.138,83.6701 905.5,84.5C 911.245,85.0907 916.912,85.9241 922.5,87C 925.299,90.3388 924.966,93.3388 921.5,96C 916.136,96.1705 910.802,96.6705 905.5,97.5C 911.472,98.3303 917.472,98.8303 923.5,99C 927.5,102.333 927.5,105.667 923.5,109C 917.472,109.17 911.472,109.67 905.5,110.5C 904.872,112.258 903.872,113.758 902.5,115C 919.5,115.667 936.5,115.667 953.5,115C 951.393,113.736 950.393,111.903 950.5,109.5C 944.491,109.666 938.491,109.499 932.5,109C 928.515,105.714 928.515,102.381 932.5,99C 938.528,98.8303 944.528,98.3303 950.5,97.5C 945.198,96.6705 939.864,96.1705 934.5,96C 931.034,93.3388 930.701,90.3388 933.5,87C 939.088,85.9241 944.755,85.0907 950.5,84.5C 944.862,83.6701 939.196,83.1701 933.5,83C 930.833,80 930.833,77 933.5,74C 939.157,73.5006 944.824,73.3339 950.5,73.5C 951.252,65.7057 954.752,64.0391 961,68.5C 961.494,70.1341 961.66,71.8008 961.5,73.5C 968.508,73.3337 975.508,73.5004 982.5,74C 985.405,77.3742 985.072,80.3742 981.5,83C 974.809,83.1691 968.142,83.6691 961.5,84.5C 966.132,85.3283 970.798,85.8283 975.5,86C 977.91,86.7579 978.91,88.4246 978.5,91C 978.646,93.0342 977.98,94.7009 976.5,96C 971.467,96.171 966.467,96.671 961.5,97.5C 968.476,98.3311 975.476,98.8311 982.5,99C 983.984,99.6622 985.317,100.496 986.5,101.5 Z"/></g>
<g><path style="opacity:0.929" fill="#323332" d="M 461.5,66.5 C 464.365,66.0548 466.865,66.7215 469,68.5C 471.5,73.5 474,78.5 476.5,83.5C 483.811,84.3313 491.144,84.8313 498.5,85C 501.167,88 501.167,91 498.5,94C 486.171,94.4999 473.838,94.6665 461.5,94.5C 461.5,102.5 461.5,110.5 461.5,118.5C 470.154,116.503 478.821,114.503 487.5,112.5C 492.151,113.193 493.651,115.859 492,120.5C 491.612,121.428 490.945,122.095 490,122.5C 478.32,126.048 466.487,128.548 454.5,130C 452.667,129.5 451.5,128.333 451,126.5C 450.5,115.839 450.333,105.172 450.5,94.5C 447.482,94.6646 444.482,94.498 441.5,94C 438.833,91 438.833,88 441.5,85C 449.167,84.6667 456.833,84.3333 464.5,84C 462.099,80.0314 460.099,75.8648 458.5,71.5C 459.26,69.6396 460.26,67.973 461.5,66.5 Z"/></g>
<g><path style="opacity:0.916" fill="#323332" d="M 510.5,69.5 C 523.504,69.3334 536.504,69.5001 549.5,70C 550.931,70.4652 552.097,71.2986 553,72.5C 554.141,81.5705 554.641,90.7371 554.5,100C 554.627,109.57 554.127,119.07 553,128.5C 547.362,134.494 540.362,137.161 532,136.5C 524.104,135.654 522.604,132.154 527.5,126C 532.563,125.752 537.563,125.085 542.5,124C 543.444,121.281 543.777,118.448 543.5,115.5C 532.833,115.5 522.167,115.5 511.5,115.5C 509.777,126.219 503.777,133.219 493.5,136.5C 489.233,135.398 487.733,132.731 489,128.5C 498.402,122.036 503.402,113.036 504,101.5C 504.667,92.1667 505.333,82.8333 506,73.5C 507.25,71.8065 508.75,70.4732 510.5,69.5 Z M 515.5,80.5 C 524.833,80.5 534.167,80.5 543.5,80.5C 543.5,82.8333 543.5,85.1667 543.5,87.5C 534.167,87.5 524.833,87.5 515.5,87.5C 515.5,85.1667 515.5,82.8333 515.5,80.5 Z M 515.5,97.5 C 524.833,97.5 534.167,97.5 543.5,97.5C 543.5,99.8333 543.5,102.167 543.5,104.5C 533.833,104.5 524.167,104.5 514.5,104.5C 514.448,102.097 514.781,99.7638 515.5,97.5 Z"/></g>
<g><path style="opacity:0.95" fill="#323332" d="M 586.5,77.5 C 623.168,77.3333 659.835,77.5 696.5,78C 700.057,80.5808 700.39,83.5808 697.5,87C 678.158,87.167 658.825,87.667 639.5,88.5C 635.599,99.4717 630.265,109.638 623.5,119C 647.588,119.019 671.588,119.686 695.5,121C 696,121.5 696.5,122 697,122.5C 697.667,142.5 697.667,162.5 697,182.5C 696.167,183.333 695.333,184.167 694.5,185C 666.167,185.667 637.833,185.667 609.5,185C 608.667,184.167 607.833,183.333 607,182.5C 606.667,168.167 606.333,153.833 606,139.5C 600.521,145.155 594.354,149.822 587.5,153.5C 582.738,152.018 581.404,149.018 583.5,144.5C 604.25,130.097 618.916,111.097 627.5,87.5C 613.829,87.6666 600.163,87.4999 586.5,87C 583.888,83.8359 583.888,80.6693 586.5,77.5 Z M 616.5,130.5 C 640.167,130.5 663.833,130.5 687.5,130.5C 687.5,145.5 687.5,160.5 687.5,175.5C 663.833,175.5 640.167,175.5 616.5,175.5C 616.5,160.5 616.5,145.5 616.5,130.5 Z"/></g>
<g><path style="opacity:0.926" fill="#323332" d="M 795.5,77.5 C 810.17,77.3334 824.837,77.5001 839.5,78C 840.333,78.8333 841.167,79.6667 842,80.5C 843.632,94.7396 843.965,109.073 843,123.5C 842.535,124.931 841.701,126.097 840.5,127C 825.927,128.633 811.26,128.966 796.5,128C 795.069,127.535 793.903,126.701 793,125.5C 792.333,110.5 792.333,95.5 793,80.5C 794.045,79.6266 794.878,78.6266 795.5,77.5 Z M 802.5,87.5 C 812.5,87.5 822.5,87.5 832.5,87.5C 832.5,97.5 832.5,107.5 832.5,117.5C 822.5,117.5 812.5,117.5 802.5,117.5C 802.5,107.5 802.5,97.5 802.5,87.5 Z"/></g>
<g><path style="opacity:0.986" fill="#2d8adb" d="M -0.5,179.5 C -0.5,171.833 -0.5,164.167 -0.5,156.5C 2.58666,144.662 8.08666,133.995 16,124.5C 29.0506,109.615 43.2172,95.9483 58.5,83.5C 64.9831,89.9937 72.6497,91.9937 81.5,89.5C 91.5629,100.565 100.896,112.232 109.5,124.5C 102.571,141.644 108.071,152.31 126,156.5C 128.524,155.896 131.024,155.229 133.5,154.5C 143.024,166.19 152.357,178.023 161.5,190C 156.175,197.628 156.175,205.295 161.5,213C 150.167,227.333 138.833,241.667 127.5,256C 115.678,253.245 106.678,257.079 100.5,267.5C 70.4374,252.814 42.7707,234.647 17.5,213C 8.19101,203.545 2.19101,192.378 -0.5,179.5 Z"/></g>
<g><path style="opacity:0.981" fill="#323332" d="M 739.5,135.5 C 770.168,135.333 800.835,135.5 831.5,136C 832.667,136.5 833.5,137.333 834,138.5C 834.667,153.167 834.667,167.833 834,182.5C 833.167,183.333 832.333,184.167 831.5,185C 800.833,185.667 770.167,185.667 739.5,185C 738.667,184.167 737.833,183.333 737,182.5C 736.333,167.833 736.333,153.167 737,138.5C 738.045,137.627 738.878,136.627 739.5,135.5 Z M 746.5,145.5 C 772.5,145.5 798.5,145.5 824.5,145.5C 824.5,148.5 824.5,151.5 824.5,154.5C 798.5,154.5 772.5,154.5 746.5,154.5C 746.5,151.5 746.5,148.5 746.5,145.5 Z M 746.5,164.5 C 772.5,164.5 798.5,164.5 824.5,164.5C 824.5,168.167 824.5,171.833 824.5,175.5C 798.5,175.5 772.5,175.5 746.5,175.5C 746.5,171.833 746.5,168.167 746.5,164.5 Z"/></g>
<g><path style="opacity:0.912" fill="#323332" d="M 443.5,138.5 C 479.835,138.333 516.168,138.5 552.5,139C 555.167,142 555.167,145 552.5,148C 536.17,148.5 519.837,148.667 503.5,148.5C 503.5,151.167 503.5,153.833 503.5,156.5C 518.504,156.333 533.504,156.5 548.5,157C 553.329,159.837 553.663,163.171 549.5,167C 534.17,167.5 518.837,167.667 503.5,167.5C 503.5,170.5 503.5,173.5 503.5,176.5C 520.17,176.333 536.837,176.5 553.5,177C 557.729,180.843 557.395,184.177 552.5,187C 516.167,187.667 479.833,187.667 443.5,187C 438.605,184.177 438.271,180.843 442.5,177C 459.163,176.5 475.83,176.333 492.5,176.5C 492.5,173.5 492.5,170.5 492.5,167.5C 477.163,167.667 461.83,167.5 446.5,167C 442.337,163.171 442.671,159.837 447.5,157C 462.496,156.5 477.496,156.333 492.5,156.5C 492.5,153.833 492.5,151.167 492.5,148.5C 476.163,148.667 459.83,148.5 443.5,148C 440.888,144.836 440.888,141.669 443.5,138.5 Z"/></g>
<g><path style="opacity:0.929" fill="#323332" d="M 895.5,154.5 C 898.695,153.961 901.195,154.961 903,157.5C 903.333,163.5 903.667,169.5 904,175.5C 904.75,176.126 905.584,176.626 906.5,177C 920.833,177.667 935.167,177.667 949.5,177C 951.286,176.215 952.786,175.049 954,173.5C 953.334,165.483 956.667,162.816 964,165.5C 966.727,175.217 963.56,182.383 954.5,187C 936.833,187.667 919.167,187.667 901.5,187C 897.333,185.5 894.5,182.667 893,178.5C 892.333,171.5 892.333,164.5 893,157.5C 893.698,156.309 894.531,155.309 895.5,154.5 Z"/></g>
<g><path style="opacity:0.882" fill="#323332" d="M 922.5,154.5 C 924.199,154.34 925.866,154.506 927.5,155C 932,158.833 936.5,162.667 941,166.5C 942.252,170.926 940.586,173.592 936,174.5C 930.112,171.284 924.779,167.284 920,162.5C 919.023,159.183 919.856,156.516 922.5,154.5 Z"/></g>
<g><path style="opacity:0.882" fill="#323332" d="M 986.5,175.5 C 986.5,177.167 986.5,178.833 986.5,180.5C 983.859,183.442 980.859,183.942 977.5,182C 973.101,174.701 969.101,167.201 965.5,159.5C 966.88,154.745 969.88,153.412 974.5,155.5C 978.526,162.23 982.526,168.897 986.5,175.5 Z"/></g>
<g><path style="opacity:0.896" fill="#323332" d="M 883.5,155.5 C 888.335,156.16 890.168,158.827 889,163.5C 885.548,170.905 881.715,178.072 877.5,185C 871.333,186.167 868.833,183.667 870,177.5C 873.333,170.833 876.667,164.167 880,157.5C 881.302,156.915 882.469,156.249 883.5,155.5 Z"/></g>
<g><path style="opacity:0.863" fill="#323332" d="M 445.5,212.5 C 451.425,212.192 457.259,212.525 463,213.5C 463.684,214.784 463.517,215.951 462.5,217C 458.5,217.333 454.5,217.667 450.5,218C 449.167,218.667 448.167,219.667 447.5,221C 451.254,225.048 455.587,228.382 460.5,231C 464.771,236.356 464.437,241.356 459.5,246C 453.584,246.807 447.75,246.641 442,245.5C 441.289,243.633 441.789,242.133 443.5,241C 447.833,240.667 452.167,240.333 456.5,240C 457.022,239.439 457.355,238.772 457.5,238C 452.729,233.905 447.895,229.738 443,225.5C 440.806,220.607 441.639,216.273 445.5,212.5 Z"/></g>
<g><path style="opacity:0.9" fill="#323332" d="M 506.5,212.5 C 513.841,212.334 521.174,212.5 528.5,213C 529.293,214.085 529.96,215.252 530.5,216.5C 527.232,217.487 523.898,217.82 520.5,217.5C 520.5,227.167 520.5,236.833 520.5,246.5C 518.5,246.5 516.5,246.5 514.5,246.5C 514.5,236.833 514.5,227.167 514.5,217.5C 511.15,217.665 507.817,217.498 504.5,217C 505.267,215.53 505.933,214.03 506.5,212.5 Z"/></g>
<g><path style="opacity:0.852" fill="#323332" d="M 580.5,212.5 C 589.822,210.251 596.655,213.251 601,221.5C 601.861,227.585 601.527,233.585 600,239.5C 598.437,242.728 595.937,244.895 592.5,246C 576.083,247.575 569.25,240.075 572,223.5C 573.416,218.636 576.249,214.97 580.5,212.5 Z M 584.5,217.5 C 588.95,217.142 592.45,218.808 595,222.5C 595.667,226.833 595.667,231.167 595,235.5C 592.103,240.155 587.937,241.655 582.5,240C 576.836,234.221 576.003,227.721 580,220.5C 581.652,219.601 583.152,218.601 584.5,217.5 Z"/></g>
<g><path style="opacity:0.875" fill="#323332" d="M 643.5,212.5 C 645.792,212.244 647.959,212.577 650,213.5C 654.419,220.672 659.085,227.672 664,234.5C 664.333,227.5 664.667,220.5 665,213.5C 666.699,212.594 668.533,212.261 670.5,212.5C 670.667,223.505 670.5,234.505 670,245.5C 667.408,246.982 665.075,246.648 663,244.5C 658.667,237.833 654.333,231.167 650,224.5C 649.667,231.5 649.333,238.5 649,245.5C 647.301,246.406 645.467,246.739 643.5,246.5C 643.5,235.167 643.5,223.833 643.5,212.5 Z"/></g>
<g><path style="opacity:0.898" fill="#323332" d="M 712.5,212.5 C 719.167,212.5 725.833,212.5 732.5,212.5C 732.5,214.167 732.5,215.833 732.5,217.5C 727.833,217.5 723.167,217.5 718.5,217.5C 718.5,220.5 718.5,223.5 718.5,226.5C 723.167,226.5 727.833,226.5 732.5,226.5C 732.739,228.467 732.406,230.301 731.5,232C 727.179,232.499 722.846,232.666 718.5,232.5C 718.5,235.167 718.5,237.833 718.5,240.5C 722.514,240.334 726.514,240.501 730.5,241C 732.192,242.401 732.859,244.234 732.5,246.5C 725.833,246.5 719.167,246.5 712.5,246.5C 712.5,235.167 712.5,223.833 712.5,212.5 Z"/></g>
<g><path style="opacity:0.856" fill="#323332" d="M 774.5,212.5 C 776.467,212.261 778.301,212.594 780,213.5C 781.511,219.877 783.177,226.21 785,232.5C 787.068,226.129 789.235,219.796 791.5,213.5C 793.353,212.24 795.186,212.24 797,213.5C 799,219.5 801,225.5 803,231.5C 805.133,225.644 806.967,219.644 808.5,213.5C 810.966,212.119 812.966,212.619 814.5,215C 811.445,225.385 808.779,235.885 806.5,246.5C 804.533,246.739 802.699,246.406 801,245.5C 798.667,238.5 796.333,231.5 794,224.5C 791.667,231.5 789.333,238.5 787,245.5C 785.333,246.833 783.667,246.833 782,245.5C 778.706,234.659 776.206,223.659 774.5,212.5 Z"/></g>
<g><path style="opacity:0.865" fill="#323332" d="M 855.5,212.5 C 857.467,212.261 859.301,212.594 861,213.5C 861.667,224.167 861.667,234.833 861,245.5C 859.333,246.833 857.667,246.833 856,245.5C 855.5,234.505 855.333,223.505 855.5,212.5 Z"/></g>
<g><path style="opacity:0.861" fill="#323332" d="M 907.5,212.5 C 913.167,212.5 918.833,212.5 924.5,212.5C 924.5,214.167 924.5,215.833 924.5,217.5C 920.154,217.334 915.821,217.501 911.5,218C 910.167,218.667 909.167,219.667 908.5,221C 913.021,225.183 917.854,229.017 923,232.5C 925.504,237.646 924.671,242.146 920.5,246C 914.833,246.667 909.167,246.667 903.5,246C 902.14,244.062 902.473,242.396 904.5,241C 908.833,240.667 913.167,240.333 917.5,240C 918.022,239.439 918.355,238.772 918.5,238C 914.046,233.503 909.212,229.337 904,225.5C 903.333,222.5 903.333,219.5 904,216.5C 904.69,214.65 905.856,213.316 907.5,212.5 Z"/></g>
<g><path style="opacity:0.915" fill="#323332" d="M 986.5,212.5 C 986.5,213.833 986.5,215.167 986.5,216.5C 981.595,217.445 976.595,217.779 971.5,217.5C 971.5,220.5 971.5,223.5 971.5,226.5C 976.595,226.221 981.595,226.555 986.5,227.5C 986.5,228.833 986.5,230.167 986.5,231.5C 981.595,232.445 976.595,232.779 971.5,232.5C 971.5,235.167 971.5,237.833 971.5,240.5C 976.562,240.274 981.562,240.608 986.5,241.5C 986.5,242.833 986.5,244.167 986.5,245.5C 979.922,246.46 973.255,246.793 966.5,246.5C 966.5,235.167 966.5,223.833 966.5,212.5C 973.167,212.5 979.833,212.5 986.5,212.5 Z"/></g>
</svg>
