<?xml version="1.0" encoding="UTF-8"?>
<!DOCTYPE svg PUBLIC "-//W3C//DTD SVG 1.1//EN" "http://www.w3.org/Graphics/SVG/1.1/DTD/svg11.dtd">
<svg xmlns="http://www.w3.org/2000/svg" version="1.1" width="201px" height="72px" style="shape-rendering:geometricPrecision; text-rendering:geometricPrecision; image-rendering:optimizeQuality; fill-rule:evenodd; clip-rule:evenodd" xmlns:xlink="http://www.w3.org/1999/xlink">
<g><path style="opacity:0.93" fill="#ff2341" d="M 24.5,-0.5 C 29.1667,-0.5 33.8333,-0.5 38.5,-0.5C 38.6666,21.1692 38.5,42.8359 38,64.5C 37.0332,67.6206 35.1999,69.954 32.5,71.5C 28.5,71.5 24.5,71.5 20.5,71.5C 18.6461,67.9469 16.9795,64.2803 15.5,60.5C 18.4281,59.5159 21.4281,59.1826 24.5,59.5C 24.5,39.5 24.5,19.5 24.5,-0.5 Z"/></g>
<g><path style="opacity:0.921" fill="#ff2341" d="M 78.5,-0.5 C 83.1667,-0.5 87.8333,-0.5 92.5,-0.5C 90.7621,5.37264 88.4287,11.0393 85.5,16.5C 89.4454,17.4909 93.4454,17.8242 97.5,17.5C 94.5,25.5 91.5,33.5 88.5,41.5C 91.2469,41.1866 93.9135,41.52 96.5,42.5C 95.2345,46.1975 93.5678,49.6975 91.5,53C 85.8333,53.6667 80.1667,53.6667 74.5,53C 72.3651,52.2411 71.0318,50.7411 70.5,48.5C 72.8333,43.1667 75.1667,37.8333 77.5,32.5C 74.8564,31.6042 72.1897,30.7709 69.5,30C 68.1059,29.044 67.4393,27.7106 67.5,26C 71.034,17.1003 74.7007,8.26694 78.5,-0.5 Z"/></g>
<g><path style="opacity:0.948" fill="#ff2341" d="M 148.5,-0.5 C 153.167,-0.5 157.833,-0.5 162.5,-0.5C 162.5,1.16667 162.5,2.83333 162.5,4.5C 180.75,2.75683 188.416,11.0902 185.5,29.5C 192.614,29.2147 197.614,32.2147 200.5,38.5C 200.5,46.8333 200.5,55.1667 200.5,63.5C 198.833,67.1667 196.167,69.8333 192.5,71.5C 187.5,71.5 182.5,71.5 177.5,71.5C 176.16,67.4895 174.826,63.4895 173.5,59.5C 177.767,59.797 181.934,59.4637 186,58.5C 186.667,54.1667 186.667,49.8333 186,45.5C 185.5,45 185,44.5 184.5,44C 177.174,43.5003 169.841,43.3337 162.5,43.5C 162.5,52.8333 162.5,62.1667 162.5,71.5C 157.833,71.5 153.167,71.5 148.5,71.5C 148.5,62.1667 148.5,52.8333 148.5,43.5C 144.167,43.5 139.833,43.5 135.5,43.5C 135.5,38.8333 135.5,34.1667 135.5,29.5C 139.833,29.5 144.167,29.5 148.5,29.5C 148.5,25.8333 148.5,22.1667 148.5,18.5C 145.5,18.5 142.5,18.5 139.5,18.5C 139.5,13.8333 139.5,9.16667 139.5,4.5C 142.5,4.5 145.5,4.5 148.5,4.5C 148.5,2.83333 148.5,1.16667 148.5,-0.5 Z M 162.5,18.5 C 165.448,18.2229 168.281,18.5562 171,19.5C 171.498,22.8168 171.665,26.1501 171.5,29.5C 168.5,29.5 165.5,29.5 162.5,29.5C 162.5,25.8333 162.5,22.1667 162.5,18.5 Z"/></g>
<g><path style="opacity:0.944" fill="#ff2341" d="M 136.5,71.5 C 121.5,71.5 106.5,71.5 91.5,71.5C 93.3592,66.9474 95.3592,62.4474 97.5,58C 101.486,57.5012 105.486,57.3345 109.5,57.5C 109.5,44.5 109.5,31.5 109.5,18.5C 106.833,18.5 104.167,18.5 101.5,18.5C 101.5,13.8333 101.5,9.16667 101.5,4.5C 111.833,4.5 122.167,4.5 132.5,4.5C 132.5,9.16667 132.5,13.8333 132.5,18.5C 129.833,18.5 127.167,18.5 124.5,18.5C 124.5,31.5 124.5,44.5 124.5,57.5C 128.846,57.3343 133.179,57.501 137.5,58C 136.533,62.4014 136.2,66.9014 136.5,71.5 Z"/></g>
<g><path style="opacity:0.883" fill="#ff2341" d="M 200.5,8.5 C 200.5,10.1667 200.5,11.8333 200.5,13.5C 197.065,18.0316 192.398,19.6982 186.5,18.5C 186.335,15.1501 186.502,11.8168 187,8.5C 187.465,7.06919 188.299,5.90252 189.5,5C 194.226,3.51801 197.893,4.68468 200.5,8.5 Z"/></g>
<g><path style="opacity:0.914" fill="#ff2341" d="M -0.5,52.5 C -0.5,50.8333 -0.5,49.1667 -0.5,47.5C 1.00121,37.6939 2.00121,27.6939 2.5,17.5C 7.16667,17.5 11.8333,17.5 16.5,17.5C 16.2449,30.6551 14.7449,43.6551 12,56.5C 10.6541,59.87 8.82081,62.87 6.5,65.5C 3.96521,61.187 1.63188,56.8536 -0.5,52.5 Z"/></g>
<g><path style="opacity:0.91" fill="#ff2341" d="M 46.5,17.5 C 51.5,17.5 56.5,17.5 61.5,17.5C 61.4064,28.4542 62.4064,39.2876 64.5,50C 62.1856,55.288 59.6856,60.4547 57,65.5C 53.6123,61.3913 51.279,56.7246 50,51.5C 48.6126,40.1827 47.4459,28.8494 46.5,17.5 Z"/></g>
<g><path style="opacity:0.91" fill="#ff2341" d="M 85.5,71.5 C 78.1667,71.5 70.8333,71.5 63.5,71.5C 65.0468,66.0761 67.3801,61.0761 70.5,56.5C 77.4504,57.2981 84.4504,57.7981 91.5,58C 89.3592,62.4474 87.3592,66.9474 85.5,71.5 Z"/></g>
</svg>
